# xmcd
#
# Track frame offsets:
#	150
#	12125
#	21200
#	37775
#	52349
#	75463
#	78538
#	97840
#	122918
#	146042
#	165723
#	191404
#
# Disc length: 2828 seconds
#
# Revision: 0
# Processed by: cddbd v1.5.2PL0 Copyright (c) Steve Scherf et al.
# Submitted via: dBpowerAMP V4.0
#
DISCID=910b0a0c
DTITLE=Kei del Furmai - NUSTRA'
DYEAR=2009
DGENRE=Country
TTITLE0=Erminia e Ginì
TTITLE1=La Sagra più bella d'Italia
TTITLE2=Nustrà
TTITLE3=Và Piano
TTITLE4=Cag-8
TTITLE5=Ta Chai Mi
TTITLE6=Maria
TTITLE7=Paisà e Puler
TTITLE8=Cuba
TTITLE9=Gio Machinèta
TTITLE10=50anni dopo...
TTITLE11=Bernarda
EXTD=
EXTT0=
EXTT1=
EXTT2=
EXTT3=
EXTT4=
EXTT5=
EXTT6=
EXTT7=
EXTT8=
EXTT9=
EXTT10=
EXTT11=
PLAYORDER=
